# cube.obj
 
mtllib textured.mtl
 
g cube
usemtl cube
 
v  0.0  0.0  0.0
v  0.0  0.0  1.0
v  0.0  1.0  0.0
v  0.0  1.0  1.0
v  1.0  0.0  0.0
v  1.0  0.0  1.0
v  1.0  1.0  0.0
v  1.0  1.0  1.0

vt 128 0
vt 256 0
vt 0 128
vt 128 128
vt 256 128
vt 384 128
vt 512 128
vt 0 256
vt 128 256
vt 256 256
vt 384 256
vt 512 256
vt 128 384
vt 256 384

vn  0.0  0.0  1.0
vn  0.0  0.0 -1.0
vn  0.0  1.0  0.0
vn  0.0 -1.0  0.0
vn  1.0  0.0  0.0
vn -1.0  0.0  0.0
 
f  1/9/2  7/5/2  5/10/2
f  1/9/2  3/4/2  7/5/2 
f  1/9/6  4/3/6  3/4/6 
f  1/9/6  2/8/6  4/3/6 
f  3/4/3  8/2/3  7/5/3 
f  3/4/3  4/1/3  8/2/3 
f  5/10/5  7/5/5  8/6/5 
f  5/10/5  8/6/5  6/11/5 
f  1/9/4  5/10/4  6/14/4 
f  1/9/4  6/14/4  2/13/4 
f  2/12/1  6/11/1  8/6/1 
f  2/12/1  8/6/1  4/7/1 
